<?xml version="1.0" encoding="iso-8859-1"?>
<!-- Generator: Adobe Illustrator 19.0.0, SVG Export Plug-In . SVG Version: 6.00 Build 0)  -->
<svg version="1.1" id="Capa_1" xmlns="http://www.w3.org/2000/svg" xmlns:xlink="http://www.w3.org/1999/xlink" x="0px" y="0px"
	 viewBox="0 0 490 490" style="enable-background:new 0 0 490 490;" xml:space="preserve">
<g>
	<path d="M245.194,256.35L319.11,178.8c14.34-14.909,14.355-37.863,0.105-52.293c-12.8-12.397-36.532-13.383-51.276-0.479
		l-23.208,20.397l-22.894-20.905c-6.236-5.712-15.073-8.853-24.913-8.853c-10.423,0-19.694,3.574-26.139,10.049
		c-14.131,14.296-14.056,37.13,0.18,51.949L245.194,256.35z"/>
	<path d="M105.453,353.518h176.393l128.257,105.228V350.258C456.489,338.46,490,295.753,490,245.748V139.009
		c0-59.411-47.313-107.756-105.468-107.756H105.453C47.313,31.253,0,79.598,0,139.009v106.739
		C0,305.173,47.313,353.518,105.453,353.518z M149.043,105.154c12.247-12.337,29.249-19.111,47.881-19.111
		c17.511,0,33.705,5.996,45.594,16.883l2.602,2.378l2.632-2.303c12.845-11.23,28.591-17.152,45.549-17.152
		c18.019,0,34.872,6.714,47.463,18.901c26.259,26.572,26.363,68.293,0.464,95.24l-96.002,100.713l-96.361-100.847
		C123.038,173.013,123.113,131.397,149.043,105.154z"/>
</g>
<g>
</g>
<g>
</g>
<g>
</g>
<g>
</g>
<g>
</g>
<g>
</g>
<g>
</g>
<g>
</g>
<g>
</g>
<g>
</g>
<g>
</g>
<g>
</g>
<g>
</g>
<g>
</g>
<g>
</g>
</svg>
