<?xml version="1.0" encoding="iso-8859-1"?>
<!-- Generator: Adobe Illustrator 19.0.0, SVG Export Plug-In . SVG Version: 6.00 Build 0)  -->
<svg version="1.1" id="Capa_1" xmlns="http://www.w3.org/2000/svg" xmlns:xlink="http://www.w3.org/1999/xlink" x="0px" y="0px"
	 viewBox="0 0 489.7 489.7" style="enable-background:new 0 0 489.7 489.7;" xml:space="preserve">
<g>
	<path d="M438.9,10.896H50.7c-28,0-50.7,22.7-50.7,50.7v277.4c0,28,22.7,50.7,50.7,50.7H62v81.7c0,6.6,8,9.9,12.7,5.2l86.9-86.9H439
		c28,0,50.7-22.7,50.7-50.7v-277.4C489.7,33.596,467,10.896,438.9,10.896z M156.8,226.796c-14.6,0-26.4-11.8-26.4-26.4
		c0-14.6,11.8-26.4,26.4-26.4c14.6,0,26.4,11.8,26.4,26.4C183.2,214.896,171.4,226.796,156.8,226.796z M244.8,226.796
		c-14.6,0-26.4-11.8-26.4-26.4c0-14.6,11.8-26.4,26.4-26.4s26.4,11.8,26.4,26.4C271.2,214.896,259.4,226.796,244.8,226.796z
		 M332.8,226.796c-14.6,0-26.4-11.8-26.4-26.4c0-14.6,11.8-26.4,26.4-26.4s26.4,11.8,26.4,26.4
		C359.2,214.896,347.4,226.796,332.8,226.796z"/>
</g>
<g>
</g>
<g>
</g>
<g>
</g>
<g>
</g>
<g>
</g>
<g>
</g>
<g>
</g>
<g>
</g>
<g>
</g>
<g>
</g>
<g>
</g>
<g>
</g>
<g>
</g>
<g>
</g>
<g>
</g>
</svg>
