<?xml version="1.0" encoding="iso-8859-1"?>
<!-- Generator: Adobe Illustrator 19.0.0, SVG Export Plug-In . SVG Version: 6.00 Build 0)  -->
<svg version="1.1" id="Capa_1" xmlns="http://www.w3.org/2000/svg" xmlns:xlink="http://www.w3.org/1999/xlink" x="0px" y="0px"
	 viewBox="0 0 55.342 55.342" style="enable-background:new 0 0 55.342 55.342;" xml:space="preserve">
<g>
	<path d="M18.246,5.023c-1.657,0-3,1.343-3,3v4.072L5.121,1.971C3.95,0.8,2.05,0.8,0.878,1.971c-1.171,1.171-1.171,3.071,0,4.243
		l9.882,9.881H7.173c-1.657,0-3,1.343-3,3s1.343,3,3,3h10.83c0.197,0,0.394-0.021,0.587-0.059c0.088-0.018,0.169-0.051,0.254-0.076
		c0.103-0.03,0.207-0.054,0.306-0.095c0.1-0.042,0.189-0.098,0.283-0.149c0.078-0.042,0.159-0.077,0.233-0.126
		c0.162-0.108,0.312-0.23,0.449-0.367c0.002-0.003,0.006-0.004,0.008-0.007c0.006-0.006,0.009-0.013,0.015-0.019
		c0.034-0.035,0.061-0.077,0.094-0.114c0.616-0.55,1.011-1.341,1.011-2.231V8.022C21.246,6.367,19.903,5.023,18.246,5.023z"/>
	<path d="M20.235,34.257c-0.17-0.19-0.355-0.365-0.568-0.507c-0.072-0.048-0.149-0.081-0.224-0.122
		c-0.097-0.053-0.189-0.111-0.292-0.153c-0.099-0.041-0.201-0.064-0.302-0.094c-0.086-0.025-0.168-0.059-0.258-0.076
		c-0.194-0.039-0.391-0.06-0.587-0.06H7.174c-1.657,0-3,1.343-3,3s1.343,3,3,3h3.588l-9.883,9.883c-1.172,1.171-1.172,3.071,0,4.242
		C1.464,53.956,2.233,54.249,3,54.249s1.536-0.293,2.121-0.879l10.125-10.125v4.072c0,1.657,1.343,3,3,3s3-1.343,3-3v-10.83
		C21.246,35.597,20.851,34.806,20.235,34.257z"/>
	<path d="M54.463,49.128l-9.883-9.883h3.588c1.657,0,3-1.343,3-3s-1.343-3-3-3h-10.83c-0.196,0-0.394,0.021-0.587,0.06
		c-0.093,0.018-0.179,0.052-0.268,0.079c-0.098,0.029-0.197,0.051-0.292,0.09c-0.108,0.045-0.207,0.106-0.309,0.163
		c-0.068,0.038-0.141,0.068-0.207,0.112c-0.213,0.142-0.399,0.316-0.569,0.508c-0.615,0.549-1.011,1.34-1.011,2.23v10.83
		c0,1.657,1.343,3,3,3s3-1.343,3-3v-4.072L50.221,53.37c0.586,0.586,1.354,0.879,2.121,0.879s1.535-0.293,2.121-0.879
		C55.635,52.199,55.635,50.299,54.463,49.128z"/>
	<path d="M34.986,21.086c0.169,0.19,0.355,0.365,0.568,0.507c0.068,0.046,0.142,0.077,0.213,0.116c0.1,0.056,0.196,0.115,0.303,0.16
		c0.097,0.04,0.196,0.063,0.296,0.092c0.088,0.026,0.172,0.06,0.264,0.078c0.193,0.039,0.39,0.059,0.587,0.059h10.83
		c1.657,0,3-1.343,3-3s-1.343-3-3-3h-3.588l9.883-9.883c1.172-1.171,1.172-3.071,0-4.242c-1.172-1.172-3.07-1.172-4.242,0
		L39.975,12.098V8.026c0-1.657-1.343-3-3-3s-3,1.343-3,3v10.83C33.975,19.746,34.37,20.537,34.986,21.086z"/>
</g>
<g>
</g>
<g>
</g>
<g>
</g>
<g>
</g>
<g>
</g>
<g>
</g>
<g>
</g>
<g>
</g>
<g>
</g>
<g>
</g>
<g>
</g>
<g>
</g>
<g>
</g>
<g>
</g>
<g>
</g>
</svg>
